<!--?xml version="1.0" encoding="utf-8"?-->
<!-- Generator: Adobe Illustrator 19.1.1, SVG Export Plug-In . SVG Version: 6.00 Build 0)  -->
<svg version="1.1" id="_x31_0" xmlns="http://www.w3.org/2000/svg" xmlns:xlink="http://www.w3.org/1999/xlink" x="0px" y="0px" viewBox="0 0 512 512" style="width: 256px; height: 256px; opacity: 1;" xml:space="preserve">
<style type="text/css">
	.st0{fill:#374149;}
</style>
<g>
	<path class="st0" d="M507.438,73.564H4.558C2.039,73.564,0,75.608,0,78.123v11.809c0,1.617,0.734,3.149,2,4.156
		c77.156,61.547,154.305,122.898,231.25,184.45c6.164,4.89,13.398,7.23,20.625,7.23c0.718,0,1.414-0.133,2.125-0.18
		c0.707,0.047,1.406,0.18,2.117,0.18c7.234,0,14.466-2.34,20.63-7.23c76.949-61.551,154.098-122.902,231.25-184.45
		c1.262-1.007,2.004-2.539,2.004-4.156V78.123C512,75.608,509.957,73.564,507.438,73.564z" style="fill: rgb(75, 75, 75);"></path>
	<path class="st0" d="M507.078,173.83L314.477,328.291c-17.016,13.61-38.703,21.258-60.602,21.258
		c-21.688,0-43.164-7.434-60.387-21.042l-76.121-60.813L4.91,178.052C2.93,176.475,0,177.884,0,180.42v244.52
		c0,7.453,6.039,13.496,13.492,13.496h485.012c7.453,0,13.496-6.043,13.496-13.496v-248.75
		C512,173.65,509.062,172.24,507.078,173.83z" style="fill: rgb(75, 75, 75);"></path>
</g>
</svg>
